<svg xmlns="http://www.w3.org/2000/svg" viewBox="0 0 1280 720" width="1280" height="720" role="img" aria-label="Isometric 8-node hexahedral finite element with corner nodes, 2x2x2 Gauss points and natural coordinate axes">
  <defs>
    <linearGradient id="bg" x1="0" y1="0" x2="1" y2="1">
      <stop offset="0%" stop-color="#DAE2FF"/>
      <stop offset="55%" stop-color="#E7E0FB"/>
      <stop offset="100%" stop-color="#FFD6FF"/>
    </linearGradient>
    <radialGradient id="glow" cx="26%" cy="20%" r="60%">
      <stop offset="0%" stop-color="#FFFFFF" stop-opacity="0.55"/>
      <stop offset="100%" stop-color="#FFFFFF" stop-opacity="0"/>
    </radialGradient>
  </defs>
  <rect width="1280" height="720" fill="url(#bg)"/>
  <rect width="1280" height="720" fill="url(#glow)"/>
  <g fill="none" stroke="#001257" stroke-width="1.5" opacity="0.06">
    <circle cx="180" cy="150" r="120"/><circle cx="1120" cy="600" r="160"/>
  </g>
  <polygon points="858,470 1148,470 1148,160 858,160" fill="#001257" opacity="0.05"/>
  <polygon points="720,560 1010,560 1010,250 720,250" fill="#FFFFFF" opacity="0.16"/>
  <g stroke="#775379" stroke-width="2.4" fill="none" opacity="0.55" stroke-dasharray="7 7">
    <path d="M 720,560 Q 865.0,606 1010,560"/>
    <path d="M 720,250 Q 865.0,296 1010,250"/>
  </g>
  <g stroke-linecap="round">
    <line x1="720" y1="560" x2="1010" y2="560" stroke="#001257" stroke-width="3.2"/>
    <line x1="1010" y1="560" x2="1010" y2="250" stroke="#001257" stroke-width="3.2"/>
    <line x1="1010" y1="250" x2="720" y2="250" stroke="#001257" stroke-width="3.2"/>
    <line x1="720" y1="250" x2="720" y2="560" stroke="#001257" stroke-width="3.2"/>
    <line x1="858" y1="470" x2="1148" y2="470" stroke="#001257" stroke-width="2" opacity="0.30" stroke-dasharray="6 6"/>
    <line x1="1148" y1="470" x2="1148" y2="160" stroke="#001257" stroke-width="3.2"/>
    <line x1="1148" y1="160" x2="858" y2="160" stroke="#001257" stroke-width="3.2"/>
    <line x1="858" y1="160" x2="858" y2="470" stroke="#001257" stroke-width="2" opacity="0.30" stroke-dasharray="6 6"/>
    <line x1="720" y1="560" x2="858" y2="470" stroke="#001257" stroke-width="2" opacity="0.30" stroke-dasharray="6 6"/>
    <line x1="1010" y1="560" x2="1148" y2="470" stroke="#001257" stroke-width="3.2"/>
    <line x1="1010" y1="250" x2="1148" y2="160" stroke="#001257" stroke-width="3.2"/>
    <line x1="720" y1="250" x2="858" y2="160" stroke="#001257" stroke-width="3.2"/>
  </g>
  <g>
    <circle cx="810.4" cy="475.5" r="7" fill="#1A5FC0" stroke="#FFFFFF" stroke-width="1.6" opacity="0.95"/>
    <circle cx="890.1" cy="423.5" r="7" fill="#1A5FC0" stroke="#FFFFFF" stroke-width="1.6" opacity="0.95"/>
    <circle cx="810.4" cy="296.5" r="7" fill="#1A5FC0" stroke="#FFFFFF" stroke-width="1.6" opacity="0.95"/>
    <circle cx="890.1" cy="244.5" r="7" fill="#1A5FC0" stroke="#FFFFFF" stroke-width="1.6" opacity="0.95"/>
    <circle cx="977.9" cy="475.5" r="7" fill="#1A5FC0" stroke="#FFFFFF" stroke-width="1.6" opacity="0.95"/>
    <circle cx="1057.6" cy="423.5" r="7" fill="#1A5FC0" stroke="#FFFFFF" stroke-width="1.6" opacity="0.95"/>
    <circle cx="977.9" cy="296.5" r="7" fill="#1A5FC0" stroke="#FFFFFF" stroke-width="1.6" opacity="0.95"/>
    <circle cx="1057.6" cy="244.5" r="7" fill="#1A5FC0" stroke="#FFFFFF" stroke-width="1.6" opacity="0.95"/>
  </g>
  <g font-family="Inter, Helvetica, Arial, sans-serif" font-weight="700" font-size="22" fill="#001257">
    <circle cx="720" cy="560" r="13" fill="#001257" stroke="#FFFFFF" stroke-width="3"/>
    <text x="701" y="585" text-anchor="middle">1</text>
    <circle cx="1010" cy="560" r="13" fill="#001257" stroke="#FFFFFF" stroke-width="3"/>
    <text x="1019" y="591" text-anchor="middle">2</text>
    <circle cx="1010" cy="250" r="13" fill="#001257" stroke="#FFFFFF" stroke-width="3"/>
    <text x="1025" y="236" text-anchor="middle">3</text>
    <circle cx="720" cy="250" r="13" fill="#001257" stroke="#FFFFFF" stroke-width="3"/>
    <text x="697" y="245" text-anchor="middle">4</text>
    <circle cx="858" cy="470" r="13" fill="#001257" stroke="#FFFFFF" stroke-width="3"/>
    <text x="843" y="498" text-anchor="middle">5</text>
    <circle cx="1148" cy="470" r="13" fill="#001257" stroke="#FFFFFF" stroke-width="3"/>
    <text x="1171" y="489" text-anchor="middle">6</text>
    <circle cx="1148" cy="160" r="13" fill="#001257" stroke="#FFFFFF" stroke-width="3"/>
    <text x="1167" y="149" text-anchor="middle">7</text>
    <circle cx="858" cy="160" r="13" fill="#001257" stroke="#FFFFFF" stroke-width="3"/>
    <text x="849" y="143" text-anchor="middle">8</text>
  </g>
  <defs><marker id="ah" markerWidth="9" markerHeight="9" refX="7" refY="4.5" orient="auto"><path d="M0,0 L9,4.5 L0,9 z" fill="#1A5FC0"/></marker></defs>
  <g>
    <line x1="150" y1="600" x2="228" y2="600" stroke="#1A5FC0" stroke-width="3.2" marker-end="url(#ah)"/>
    <text x="236" y="608" fill="#1A5FC0" font-style="italic" font-family="Georgia, serif" font-size="30">ξ</text>
    <line x1="150" y1="600" x2="150" y2="522" stroke="#1A5FC0" stroke-width="3.2" marker-end="url(#ah)"/>
    <text x="144" y="514" fill="#1A5FC0" font-style="italic" font-family="Georgia, serif" font-size="30">η</text>
    <line x1="150" y1="600" x2="202" y2="560" stroke="#1A5FC0" stroke-width="3.2" marker-end="url(#ah)"/>
    <text x="208" y="560" fill="#1A5FC0" font-style="italic" font-family="Georgia, serif" font-size="30">ζ</text>
  </g>
  <g font-family="Inter, Helvetica, Arial, sans-serif">
    <text x="96" y="150" fill="#1A5FC0" font-size="26" font-weight="700" letter-spacing="4">FINITE ELEMENT METHOD</text>
    <text x="92" y="238" fill="#001257" font-size="66" font-weight="800">Enhanced Assumed</text>
    <text x="92" y="312" fill="#001257" font-size="66" font-weight="800">Strain</text>
    <text x="96" y="372" fill="#001257" font-size="30" font-weight="500" opacity="0.72">3D 8-node solid element</text>
  </g>
</svg>